<svg id="visual" viewBox="0 0 960 540" width="960" height="540" xmlns="http://www.w3.org/2000/svg" xmlns:xlink="http://www.w3.org/1999/xlink" version="1.1"><path d="M0 244L87 120L175 190L262 179L349 136L436 163L524 163L611 228L698 239L785 244L873 98L960 131L960 0L873 0L785 0L698 0L611 0L524 0L436 0L349 0L262 0L175 0L87 0L0 0Z" fill="#00cc8e"></path><path d="M0 276L87 190L175 233L262 239L349 168L436 244L524 228L611 266L698 276L785 276L873 158L960 212L960 129L873 96L785 242L698 237L611 226L524 161L436 161L349 134L262 177L175 188L87 118L0 242Z" fill="#00b98a"></path><path d="M0 347L87 233L175 282L262 330L349 271L436 347L524 282L611 320L698 320L785 330L873 239L960 271L960 210L873 156L785 274L698 274L611 264L524 226L436 242L349 166L262 237L175 231L87 188L0 274Z" fill="#00a784"></path><path d="M0 438L87 449L175 401L262 487L349 395L436 465L524 449L611 444L698 417L785 449L873 476L960 428L960 269L873 237L785 328L698 318L611 318L524 280L436 345L349 269L262 328L175 280L87 231L0 345Z" fill="#00957c"></path><path d="M0 541L87 541L175 541L262 541L349 541L436 541L524 541L611 541L698 541L785 541L873 541L960 541L960 426L873 474L785 447L698 415L611 442L524 447L436 463L349 393L262 485L175 399L87 447L0 436Z" fill="#038373"></path></svg>